<mxfile host="app.diagrams.net" modified="2024-01-17T15:59:54.580Z" agent="Mozilla/5.0 (Windows NT 10.0; Win64; x64) AppleWebKit/537.36 (KHTML, like Gecko) Chrome/120.0.0.0 Safari/537.36" etag="k6XvTCHhr4H1mttZQJir" version="22.1.19" type="device">
  <diagram name="PÃ¡gina-1" id="Xx2GPtKRPrGTt_XBKnPD">
    <mxGraphModel dx="1015" dy="688" grid="1" gridSize="10" guides="1" tooltips="1" connect="1" arrows="1" fold="1" page="1" pageScale="1" pageWidth="827" pageHeight="1169" math="0" shadow="0">
      <root>
        <mxCell id="0" />
        <mxCell id="1" parent="0" />
        <mxCell id="OjY1b_bEzQ7CaZI3-qbl-24" style="rounded=0;orthogonalLoop=1;jettySize=auto;html=1;entryX=0.5;entryY=1;entryDx=0;entryDy=0;endArrow=none;endFill=0;" edge="1" parent="1" source="OjY1b_bEzQ7CaZI3-qbl-1" target="OjY1b_bEzQ7CaZI3-qbl-3">
          <mxGeometry relative="1" as="geometry" />
        </mxCell>
        <mxCell id="OjY1b_bEzQ7CaZI3-qbl-25" value="" style="rounded=0;orthogonalLoop=1;jettySize=auto;html=1;endArrow=none;endFill=0;" edge="1" parent="1" source="OjY1b_bEzQ7CaZI3-qbl-1" target="OjY1b_bEzQ7CaZI3-qbl-2">
          <mxGeometry relative="1" as="geometry" />
        </mxCell>
        <mxCell id="OjY1b_bEzQ7CaZI3-qbl-40" style="rounded=0;orthogonalLoop=1;jettySize=auto;html=1;endArrow=none;endFill=0;" edge="1" parent="1" source="OjY1b_bEzQ7CaZI3-qbl-1" target="OjY1b_bEzQ7CaZI3-qbl-5">
          <mxGeometry relative="1" as="geometry" />
        </mxCell>
        <mxCell id="OjY1b_bEzQ7CaZI3-qbl-1" value="SUCURSALES" style="rounded=0;whiteSpace=wrap;html=1;" vertex="1" parent="1">
          <mxGeometry x="130" y="120" width="120" height="60" as="geometry" />
        </mxCell>
        <mxCell id="OjY1b_bEzQ7CaZI3-qbl-2" value="DOMICILIO" style="ellipse;whiteSpace=wrap;html=1;" vertex="1" parent="1">
          <mxGeometry x="270" y="40" width="120" height="80" as="geometry" />
        </mxCell>
        <mxCell id="OjY1b_bEzQ7CaZI3-qbl-3" value="TELEFONO" style="ellipse;whiteSpace=wrap;html=1;" vertex="1" parent="1">
          <mxGeometry y="40" width="120" height="80" as="geometry" />
        </mxCell>
        <mxCell id="OjY1b_bEzQ7CaZI3-qbl-23" value="" style="rounded=1;orthogonalLoop=1;jettySize=auto;html=1;endArrow=none;endFill=0;curved=0;" edge="1" parent="1" source="OjY1b_bEzQ7CaZI3-qbl-4" target="OjY1b_bEzQ7CaZI3-qbl-1">
          <mxGeometry relative="1" as="geometry" />
        </mxCell>
        <mxCell id="OjY1b_bEzQ7CaZI3-qbl-4" value="ID" style="ellipse;whiteSpace=wrap;html=1;" vertex="1" parent="1">
          <mxGeometry x="130" width="120" height="80" as="geometry" />
        </mxCell>
        <mxCell id="OjY1b_bEzQ7CaZI3-qbl-5" value="PUBLICA" style="rhombus;whiteSpace=wrap;html=1;" vertex="1" parent="1">
          <mxGeometry x="150" y="270" width="80" height="80" as="geometry" />
        </mxCell>
        <mxCell id="OjY1b_bEzQ7CaZI3-qbl-26" style="rounded=0;orthogonalLoop=1;jettySize=auto;html=1;endArrow=none;endFill=0;" edge="1" parent="1" source="OjY1b_bEzQ7CaZI3-qbl-6" target="OjY1b_bEzQ7CaZI3-qbl-7">
          <mxGeometry relative="1" as="geometry" />
        </mxCell>
        <mxCell id="OjY1b_bEzQ7CaZI3-qbl-28" style="rounded=1;orthogonalLoop=1;jettySize=auto;html=1;endArrow=none;endFill=0;curved=0;" edge="1" parent="1" source="OjY1b_bEzQ7CaZI3-qbl-6" target="OjY1b_bEzQ7CaZI3-qbl-9">
          <mxGeometry relative="1" as="geometry" />
        </mxCell>
        <mxCell id="OjY1b_bEzQ7CaZI3-qbl-6" value="EMPLEADOS" style="rounded=0;whiteSpace=wrap;html=1;" vertex="1" parent="1">
          <mxGeometry x="540" y="120" width="120" height="60" as="geometry" />
        </mxCell>
        <mxCell id="OjY1b_bEzQ7CaZI3-qbl-7" value="NOMBRE" style="ellipse;whiteSpace=wrap;html=1;" vertex="1" parent="1">
          <mxGeometry x="460" y="10" width="120" height="80" as="geometry" />
        </mxCell>
        <mxCell id="OjY1b_bEzQ7CaZI3-qbl-8" value="APELLIDO" style="ellipse;whiteSpace=wrap;html=1;" vertex="1" parent="1">
          <mxGeometry x="630" y="10" width="120" height="80" as="geometry" />
        </mxCell>
        <mxCell id="OjY1b_bEzQ7CaZI3-qbl-9" value="ID" style="ellipse;whiteSpace=wrap;html=1;" vertex="1" parent="1">
          <mxGeometry x="700" y="110" width="120" height="80" as="geometry" />
        </mxCell>
        <mxCell id="OjY1b_bEzQ7CaZI3-qbl-10" value="TELEFONO" style="ellipse;whiteSpace=wrap;html=1;" vertex="1" parent="1">
          <mxGeometry x="620" y="200" width="120" height="80" as="geometry" />
        </mxCell>
        <mxCell id="OjY1b_bEzQ7CaZI3-qbl-31" style="rounded=0;orthogonalLoop=1;jettySize=auto;html=1;entryX=0;entryY=0.5;entryDx=0;entryDy=0;endArrow=none;endFill=0;" edge="1" parent="1" source="OjY1b_bEzQ7CaZI3-qbl-11" target="OjY1b_bEzQ7CaZI3-qbl-13">
          <mxGeometry relative="1" as="geometry" />
        </mxCell>
        <mxCell id="OjY1b_bEzQ7CaZI3-qbl-32" style="rounded=0;orthogonalLoop=1;jettySize=auto;html=1;entryX=1;entryY=0.5;entryDx=0;entryDy=0;endArrow=none;endFill=0;" edge="1" parent="1" source="OjY1b_bEzQ7CaZI3-qbl-11" target="OjY1b_bEzQ7CaZI3-qbl-12">
          <mxGeometry relative="1" as="geometry" />
        </mxCell>
        <mxCell id="OjY1b_bEzQ7CaZI3-qbl-33" value="" style="rounded=1;orthogonalLoop=1;jettySize=auto;html=1;endArrow=none;endFill=0;curved=0;" edge="1" parent="1" source="OjY1b_bEzQ7CaZI3-qbl-11" target="OjY1b_bEzQ7CaZI3-qbl-14">
          <mxGeometry relative="1" as="geometry" />
        </mxCell>
        <mxCell id="OjY1b_bEzQ7CaZI3-qbl-35" style="rounded=0;orthogonalLoop=1;jettySize=auto;html=1;entryX=1;entryY=0.5;entryDx=0;entryDy=0;endArrow=none;endFill=0;" edge="1" parent="1" source="OjY1b_bEzQ7CaZI3-qbl-11" target="OjY1b_bEzQ7CaZI3-qbl-16">
          <mxGeometry relative="1" as="geometry" />
        </mxCell>
        <mxCell id="OjY1b_bEzQ7CaZI3-qbl-11" value="PERIODISTAS" style="rounded=0;whiteSpace=wrap;html=1;" vertex="1" parent="1">
          <mxGeometry x="570" y="470" width="120" height="60" as="geometry" />
        </mxCell>
        <mxCell id="OjY1b_bEzQ7CaZI3-qbl-12" value="NOMBRE" style="ellipse;whiteSpace=wrap;html=1;" vertex="1" parent="1">
          <mxGeometry x="490" y="370" width="120" height="80" as="geometry" />
        </mxCell>
        <mxCell id="OjY1b_bEzQ7CaZI3-qbl-13" value="APELLIDO" style="ellipse;whiteSpace=wrap;html=1;" vertex="1" parent="1">
          <mxGeometry x="660" y="370" width="120" height="80" as="geometry" />
        </mxCell>
        <mxCell id="OjY1b_bEzQ7CaZI3-qbl-14" value="ID" style="ellipse;whiteSpace=wrap;html=1;" vertex="1" parent="1">
          <mxGeometry x="720" y="460" width="120" height="80" as="geometry" />
        </mxCell>
        <mxCell id="OjY1b_bEzQ7CaZI3-qbl-15" value="TELEFONO" style="ellipse;whiteSpace=wrap;html=1;" vertex="1" parent="1">
          <mxGeometry x="650" y="560" width="120" height="80" as="geometry" />
        </mxCell>
        <mxCell id="OjY1b_bEzQ7CaZI3-qbl-16" value="ESPECIALIDAD" style="ellipse;whiteSpace=wrap;html=1;" vertex="1" parent="1">
          <mxGeometry x="490" y="570" width="120" height="80" as="geometry" />
        </mxCell>
        <mxCell id="OjY1b_bEzQ7CaZI3-qbl-43" style="rounded=0;orthogonalLoop=1;jettySize=auto;html=1;entryX=0;entryY=0.5;entryDx=0;entryDy=0;endArrow=none;endFill=0;" edge="1" parent="1" source="OjY1b_bEzQ7CaZI3-qbl-17" target="OjY1b_bEzQ7CaZI3-qbl-11">
          <mxGeometry relative="1" as="geometry" />
        </mxCell>
        <mxCell id="OjY1b_bEzQ7CaZI3-qbl-17" value="ESCRIBIR" style="rhombus;whiteSpace=wrap;html=1;" vertex="1" parent="1">
          <mxGeometry x="370" y="460" width="80" height="80" as="geometry" />
        </mxCell>
        <mxCell id="OjY1b_bEzQ7CaZI3-qbl-36" style="rounded=0;orthogonalLoop=1;jettySize=auto;html=1;endArrow=none;endFill=0;" edge="1" parent="1" source="OjY1b_bEzQ7CaZI3-qbl-18" target="OjY1b_bEzQ7CaZI3-qbl-19">
          <mxGeometry relative="1" as="geometry" />
        </mxCell>
        <mxCell id="OjY1b_bEzQ7CaZI3-qbl-37" style="rounded=0;orthogonalLoop=1;jettySize=auto;html=1;endArrow=none;endFill=0;" edge="1" parent="1" source="OjY1b_bEzQ7CaZI3-qbl-18" target="OjY1b_bEzQ7CaZI3-qbl-22">
          <mxGeometry relative="1" as="geometry" />
        </mxCell>
        <mxCell id="OjY1b_bEzQ7CaZI3-qbl-38" style="rounded=0;orthogonalLoop=1;jettySize=auto;html=1;endArrow=none;endFill=0;" edge="1" parent="1" source="OjY1b_bEzQ7CaZI3-qbl-18" target="OjY1b_bEzQ7CaZI3-qbl-21">
          <mxGeometry relative="1" as="geometry" />
        </mxCell>
        <mxCell id="OjY1b_bEzQ7CaZI3-qbl-39" style="rounded=1;orthogonalLoop=1;jettySize=auto;html=1;entryX=0.5;entryY=1;entryDx=0;entryDy=0;endArrow=none;endFill=0;curved=0;" edge="1" parent="1" source="OjY1b_bEzQ7CaZI3-qbl-18" target="OjY1b_bEzQ7CaZI3-qbl-20">
          <mxGeometry relative="1" as="geometry" />
        </mxCell>
        <mxCell id="OjY1b_bEzQ7CaZI3-qbl-42" style="rounded=0;orthogonalLoop=1;jettySize=auto;html=1;entryX=0;entryY=0.5;entryDx=0;entryDy=0;endArrow=none;endFill=0;" edge="1" parent="1" source="OjY1b_bEzQ7CaZI3-qbl-18" target="OjY1b_bEzQ7CaZI3-qbl-17">
          <mxGeometry relative="1" as="geometry" />
        </mxCell>
        <mxCell id="OjY1b_bEzQ7CaZI3-qbl-18" value="REVISTAS" style="rounded=0;whiteSpace=wrap;html=1;" vertex="1" parent="1">
          <mxGeometry x="150" y="480" width="120" height="60" as="geometry" />
        </mxCell>
        <mxCell id="OjY1b_bEzQ7CaZI3-qbl-19" value="TITULO" style="ellipse;whiteSpace=wrap;html=1;" vertex="1" parent="1">
          <mxGeometry x="260" y="570" width="120" height="80" as="geometry" />
        </mxCell>
        <mxCell id="OjY1b_bEzQ7CaZI3-qbl-20" value="ID" style="ellipse;whiteSpace=wrap;html=1;" vertex="1" parent="1">
          <mxGeometry x="10" y="420" width="120" height="80" as="geometry" />
        </mxCell>
        <mxCell id="OjY1b_bEzQ7CaZI3-qbl-21" value="PERIDIOCIDAD" style="ellipse;whiteSpace=wrap;html=1;" vertex="1" parent="1">
          <mxGeometry x="10" y="520" width="120" height="80" as="geometry" />
        </mxCell>
        <mxCell id="OjY1b_bEzQ7CaZI3-qbl-22" value="TIPO" style="ellipse;whiteSpace=wrap;html=1;" vertex="1" parent="1">
          <mxGeometry x="120" y="590" width="120" height="80" as="geometry" />
        </mxCell>
        <mxCell id="OjY1b_bEzQ7CaZI3-qbl-27" style="rounded=0;orthogonalLoop=1;jettySize=auto;html=1;entryX=0.417;entryY=0.975;entryDx=0;entryDy=0;entryPerimeter=0;endArrow=none;endFill=0;" edge="1" parent="1" source="OjY1b_bEzQ7CaZI3-qbl-6" target="OjY1b_bEzQ7CaZI3-qbl-8">
          <mxGeometry relative="1" as="geometry" />
        </mxCell>
        <mxCell id="OjY1b_bEzQ7CaZI3-qbl-29" style="rounded=0;orthogonalLoop=1;jettySize=auto;html=1;entryX=0.008;entryY=0.588;entryDx=0;entryDy=0;entryPerimeter=0;endArrow=none;endFill=0;" edge="1" parent="1" source="OjY1b_bEzQ7CaZI3-qbl-6" target="OjY1b_bEzQ7CaZI3-qbl-10">
          <mxGeometry relative="1" as="geometry" />
        </mxCell>
        <mxCell id="OjY1b_bEzQ7CaZI3-qbl-34" style="rounded=0;orthogonalLoop=1;jettySize=auto;html=1;entryX=-0.008;entryY=0.65;entryDx=0;entryDy=0;entryPerimeter=0;endArrow=none;endFill=0;" edge="1" parent="1" source="OjY1b_bEzQ7CaZI3-qbl-11" target="OjY1b_bEzQ7CaZI3-qbl-15">
          <mxGeometry relative="1" as="geometry" />
        </mxCell>
        <mxCell id="OjY1b_bEzQ7CaZI3-qbl-41" style="rounded=0;orthogonalLoop=1;jettySize=auto;html=1;entryX=0.35;entryY=0.033;entryDx=0;entryDy=0;entryPerimeter=0;endArrow=none;endFill=0;" edge="1" parent="1" source="OjY1b_bEzQ7CaZI3-qbl-5" target="OjY1b_bEzQ7CaZI3-qbl-18">
          <mxGeometry relative="1" as="geometry" />
        </mxCell>
        <mxCell id="OjY1b_bEzQ7CaZI3-qbl-45" style="rounded=0;orthogonalLoop=1;jettySize=auto;html=1;entryX=0;entryY=0.5;entryDx=0;entryDy=0;endArrow=none;endFill=0;" edge="1" parent="1" source="OjY1b_bEzQ7CaZI3-qbl-44" target="OjY1b_bEzQ7CaZI3-qbl-6">
          <mxGeometry relative="1" as="geometry" />
        </mxCell>
        <mxCell id="OjY1b_bEzQ7CaZI3-qbl-44" value="TRABAJA" style="rhombus;whiteSpace=wrap;html=1;" vertex="1" parent="1">
          <mxGeometry x="380" y="170" width="80" height="80" as="geometry" />
        </mxCell>
        <mxCell id="OjY1b_bEzQ7CaZI3-qbl-46" style="rounded=0;orthogonalLoop=1;jettySize=auto;html=1;entryX=0.908;entryY=1;entryDx=0;entryDy=0;entryPerimeter=0;endArrow=none;endFill=0;" edge="1" parent="1" source="OjY1b_bEzQ7CaZI3-qbl-44" target="OjY1b_bEzQ7CaZI3-qbl-1">
          <mxGeometry relative="1" as="geometry" />
        </mxCell>
        <mxCell id="OjY1b_bEzQ7CaZI3-qbl-49" value="1:N" style="text;strokeColor=none;fillColor=none;html=1;fontSize=24;fontStyle=1;verticalAlign=middle;align=center;" vertex="1" parent="1">
          <mxGeometry x="385" y="140" width="70" height="20" as="geometry" />
        </mxCell>
        <mxCell id="OjY1b_bEzQ7CaZI3-qbl-50" value="N:N" style="text;strokeColor=none;fillColor=none;html=1;fontSize=24;fontStyle=1;verticalAlign=middle;align=center;" vertex="1" parent="1">
          <mxGeometry x="35" y="310" width="70" height="20" as="geometry" />
        </mxCell>
        <mxCell id="OjY1b_bEzQ7CaZI3-qbl-51" value="N:N" style="text;strokeColor=none;fillColor=none;html=1;fontSize=24;fontStyle=1;verticalAlign=middle;align=center;" vertex="1" parent="1">
          <mxGeometry x="379" y="560" width="70" height="20" as="geometry" />
        </mxCell>
      </root>
    </mxGraphModel>
  </diagram>
</mxfile>
